{
    "asset" : {
        "generator" : "Khronos glTF Blender I/O v1.3.48",
        "version" : "2.0"
    },
    "scene" : 0,
    "scenes" : [
        {
            "name" : "Scene",
            "nodes" : [
                0,
                1,
                2,
                3
            ]
        }
    ],
    "nodes" : [
        {
            "name" : "Light",
            "rotation" : [
                0.16907575726509094,
                0.7558803558349609,
                -0.27217137813568115,
                0.570947527885437
            ],
            "translation" : [
                1.0253947973251343,
                4.641565322875977,
                7.408286094665527
            ]
        },
        {
            "name" : "Camera",
            "rotation" : [
                0.7071068286895752,
                0,
                0,
                0.7071067094802856
            ],
            "translation" : [
                -0.1727810949087143,
                3.6290230751037598,
                18.680326461791992
            ]
        },
        {
            "name" : "Empty",
            "rotation" : [
                0.7071068286895752,
                0,
                0,
                0.7071067094802856
            ],
            "scale" : [
                1.3652582168579102,
                1.3652582168579102,
                1.3652582168579102
            ],
            "translation" : [
                0,
                3.6164469718933105,
                0
            ]
        },
        {
            "mesh" : 0,
            "name" : "Cube",
            "rotation" : [
                0,
                0,
                0.4978373050689697,
                0.8672704100608826
            ],
            "scale" : [
                0.4126342236995697,
                0.4126342236995697,
                0.4126342236995697
            ],
            "translation" : [
                0.512609601020813,
                2.1235198974609375,
                1.0630359649658203
            ]
        }
    ],
    "materials" : [
        {
            "doubleSided" : true,
            "name" : "Material.001",
            "pbrMetallicRoughness" : {}
        }
    ],
    "meshes" : [
        {
            "name" : "Cube.002",
            "primitives" : [
                {
                    "attributes" : {
                        "POSITION" : 0,
                        "TEXCOORD_0" : 1
                    },
                    "indices" : 2,
                    "material" : 0
                }
            ]
        }
    ],
    "accessors" : [
        {
            "bufferView" : 0,
            "componentType" : 5126,
            "count" : 2154,
            "max" : [
                4.161759853363037,
                4.5695013999938965,
                0.9860994815826416
            ],
            "min" : [
                -2.9710702896118164,
                -2.2844080924987793,
                -0.9860993027687073
            ],
            "type" : "VEC3"
        },
        {
            "bufferView" : 1,
            "componentType" : 5126,
            "count" : 2154,
            "type" : "VEC2"
        },
        {
            "bufferView" : 2,
            "componentType" : 5123,
            "count" : 9792,
            "type" : "SCALAR"
        }
    ],
    "bufferViews" : [
        {
            "buffer" : 0,
            "byteLength" : 25848,
            "byteOffset" : 0
        },
        {
            "buffer" : 0,
            "byteLength" : 17232,
            "byteOffset" : 25848
        },
        {
            "buffer" : 0,
            "byteLength" : 19584,
            "byteOffset" : 43080
        }
    ],
    "buffers" : [
        {
            "byteLength" : 62664,
            "uri" : "data:application/octet-stream;base64,"
        }
    ]
}
